<svg width="1202" height="692" viewBox="0 0 1202 692" fill="none" xmlns="http://www.w3.org/2000/svg">
<g opacity="0.5">
<path d="M351.589 114.848V691.101H123.254V114.848H154.69V67.1327H180.738V-0.00012207H294.106V67.1327H320.154V114.848H351.589Z" fill="#488ACC"/>
<path d="M565.005 687.194H396.758V14.2079H565.005V687.194Z" fill="#488ACC"/>
<path d="M1201.11 57.72V691.101H1032.86V105.021C1032.98 105.06 1033.12 105.08 1033.28 105.08C1037.6 105.08 1041.8 104.488 1045.83 103.363C1051.69 101.646 1057.13 98.7456 1061.81 94.72C1062.52 94.0885 1063.23 93.457 1063.94 92.8256C1068.97 87.8528 1072.7 81.8736 1074.84 75.3024C1076.14 71.2176 1076.85 66.896 1076.91 62.456C1076.95 60.8773 1076.89 59.2986 1076.73 57.72H1201.11Z" fill="#488ACC"/>
<path d="M722.299 691.101H528.064V4.38074H722.299V691.101Z" fill="#6AA2E5"/>
<path d="M472.83 250.594V691.101H298.25V250.594H322.344V214.126H342.235V162.8H428.904V214.126H448.795V250.594H472.83Z" fill="#6AA2E5"/>
<path d="M1005.51 162.978V691.101H756.517V162.978H790.794V119.229H819.21V57.72H942.819V119.229H971.176V162.978H1005.51Z" fill="#488ACC"/>
<path d="M191.571 327.909V691.101H6.10352e-05V327.909H26.4033V297.835H48.2481V255.566L95.7857 202.76L143.323 255.566V297.835H165.168V327.909H191.571Z" fill="#CAE3FF"/>
<path d="M1097.15 691.101H894.334V245.147H1097.15V691.101Z" fill="#6AA2E5"/>
<g opacity="0.5">
<path d="M40.2561 377.282H25.4561V354.016H40.2561V377.282Z" fill="#6AA2E5"/>
</g>
<g opacity="0.5">
<path d="M72.4017 377.282H57.6017V354.016H72.4017V377.282Z" fill="#6AA2E5"/>
</g>
<g opacity="0.5">
<path d="M104.547 377.282H89.7473V354.016H104.547V377.282Z" fill="#6AA2E5"/>
</g>
<g opacity="0.5">
<path d="M136.693 377.282H121.893V354.016H136.693V377.282Z" fill="#6AA2E5"/>
</g>
<g opacity="0.5">
<path d="M168.838 377.282H154.038V354.016H168.838V377.282Z" fill="#6AA2E5"/>
</g>
<g opacity="0.5">
<path d="M40.2561 418.307H25.4561V395.042H40.2561V418.307Z" fill="#6AA2E5"/>
</g>
<g opacity="0.5">
<path d="M72.4017 418.307H57.6017V395.042H72.4017V418.307Z" fill="#6AA2E5"/>
</g>
<g opacity="0.5">
<path d="M104.547 418.307H89.7473V395.042H104.547V418.307Z" fill="#6AA2E5"/>
</g>
<g opacity="0.5">
<path d="M136.693 418.307H121.893V395.042H136.693V418.307Z" fill="#6AA2E5"/>
</g>
<g opacity="0.5">
<path d="M168.838 418.307H154.038V395.042H168.838V418.307Z" fill="#6AA2E5"/>
</g>
<g opacity="0.5">
<path d="M40.2561 459.392H25.4561V436.126H40.2561V459.392Z" fill="#6AA2E5"/>
</g>
<g opacity="0.5">
<path d="M72.4017 459.392H57.6017V436.126H72.4017V459.392Z" fill="#6AA2E5"/>
</g>
<g opacity="0.5">
<path d="M104.547 459.392H89.7473V436.126H104.547V459.392Z" fill="#6AA2E5"/>
</g>
<g opacity="0.5">
<path d="M136.693 459.392H121.893V436.126H136.693V459.392Z" fill="#6AA2E5"/>
</g>
<g opacity="0.5">
<path d="M168.838 459.392H154.038V436.126H168.838V459.392Z" fill="#6AA2E5"/>
</g>
<g opacity="0.5">
<path d="M40.2561 500.418H25.4561V477.152H40.2561V500.418Z" fill="#6AA2E5"/>
</g>
<g opacity="0.5">
<path d="M72.4017 500.418H57.6017V477.152H72.4017V500.418Z" fill="#6AA2E5"/>
</g>
<g opacity="0.5">
<path d="M104.547 500.418H89.7473V477.152H104.547V500.418Z" fill="#6AA2E5"/>
</g>
<g opacity="0.5">
<path d="M136.693 500.418H121.893V477.152H136.693V500.418Z" fill="#6AA2E5"/>
</g>
<g opacity="0.5">
<path d="M168.838 500.418H154.038V477.152H168.838V500.418Z" fill="#6AA2E5"/>
</g>
<g opacity="0.5">
<path d="M40.2561 541.443H25.4561V518.178H40.2561V541.443Z" fill="#6AA2E5"/>
</g>
<g opacity="0.5">
<path d="M72.4017 541.443H57.6017V518.178H72.4017V541.443Z" fill="#6AA2E5"/>
</g>
<g opacity="0.5">
<path d="M104.547 541.443H89.7473V518.178H104.547V541.443Z" fill="#6AA2E5"/>
</g>
<g opacity="0.5">
<path d="M136.693 541.443H121.893V518.178H136.693V541.443Z" fill="#6AA2E5"/>
</g>
<g opacity="0.5">
<path d="M168.838 541.443H154.038V518.178H168.838V541.443Z" fill="#6AA2E5"/>
</g>
<g opacity="0.5">
<path d="M40.2561 585.133H25.4561V561.867H40.2561V585.133Z" fill="#6AA2E5"/>
</g>
<g opacity="0.5">
<path d="M72.4017 585.133H57.6017V561.867H72.4017V585.133Z" fill="#6AA2E5"/>
</g>
<g opacity="0.5">
<path d="M104.547 585.133H89.7473V561.867H104.547V585.133Z" fill="#6AA2E5"/>
</g>
<g opacity="0.5">
<path d="M136.693 585.133H121.893V561.867H136.693V585.133Z" fill="#6AA2E5"/>
</g>
<g opacity="0.5">
<path d="M168.838 585.133H154.038V561.867H168.838V585.133Z" fill="#6AA2E5"/>
</g>
<g opacity="0.5">
<path d="M40.2561 628.822H25.4561V605.557H40.2561V628.822Z" fill="#6AA2E5"/>
</g>
<g opacity="0.5">
<path d="M72.4017 628.822H57.6017V605.557H72.4017V628.822Z" fill="#6AA2E5"/>
</g>
<g opacity="0.5">
<path d="M104.547 628.822H89.7473V605.557H104.547V628.822Z" fill="#6AA2E5"/>
</g>
<g opacity="0.5">
<path d="M136.693 628.822H121.893V605.557H136.693V628.822Z" fill="#6AA2E5"/>
</g>
<g opacity="0.5">
<path d="M168.838 628.822H154.038V605.557H168.838V628.822Z" fill="#6AA2E5"/>
</g>
<g opacity="0.5">
<path d="M40.2561 672.453H25.4561V649.187H40.2561V672.453Z" fill="#6AA2E5"/>
</g>
<g opacity="0.5">
<path d="M72.4017 672.453H57.6017V649.187H72.4017V672.453Z" fill="#6AA2E5"/>
</g>
<g opacity="0.5">
<path d="M104.547 672.453H89.7473V649.187H104.547V672.453Z" fill="#6AA2E5"/>
</g>
<g opacity="0.5">
<path d="M136.693 672.453H121.893V649.187H136.693V672.453Z" fill="#6AA2E5"/>
</g>
<g opacity="0.5">
<path d="M168.838 672.453H154.038V649.187H168.838V672.453Z" fill="#6AA2E5"/>
</g>
<g style="mix-blend-mode:multiply" opacity="0.3">
<path d="M1079.33 277.648H907.003V263.618H1079.33V277.648Z" fill="#6AA2E5"/>
</g>
<g style="mix-blend-mode:multiply" opacity="0.3">
<path d="M1079.33 314.944H907.003V300.914H1079.33V314.944Z" fill="#6AA2E5"/>
</g>
<g style="mix-blend-mode:multiply" opacity="0.3">
<path d="M1079.33 352.24H907.003V338.21H1079.33V352.24Z" fill="#6AA2E5"/>
</g>
<g style="mix-blend-mode:multiply" opacity="0.3">
<path d="M1079.33 389.536H907.003V375.506H1079.33V389.536Z" fill="#6AA2E5"/>
</g>
<g style="mix-blend-mode:multiply" opacity="0.3">
<path d="M1079.33 426.832H907.003V412.802H1079.33V426.832Z" fill="#6AA2E5"/>
</g>
<g style="mix-blend-mode:multiply" opacity="0.3">
<path d="M1079.33 464.128H907.003V450.098H1079.33V464.128Z" fill="#6AA2E5"/>
</g>
<g style="mix-blend-mode:multiply" opacity="0.3">
<path d="M1079.33 501.424H907.003V487.394H1079.33V501.424Z" fill="#6AA2E5"/>
</g>
<g style="mix-blend-mode:multiply" opacity="0.3">
<path d="M1079.33 538.72H907.003V524.69H1079.33V538.72Z" fill="#6AA2E5"/>
</g>
<g style="mix-blend-mode:multiply" opacity="0.3">
<path d="M1079.33 576.016H907.003V561.986H1079.33V576.016Z" fill="#6AA2E5"/>
</g>
<g style="mix-blend-mode:multiply" opacity="0.3">
<path d="M1079.33 613.312H907.003V599.282H1079.33V613.312Z" fill="#6AA2E5"/>
</g>
<g style="mix-blend-mode:multiply" opacity="0.3">
<path d="M1079.33 650.608H907.003V636.578H1079.33V650.608Z" fill="#6AA2E5"/>
</g>
<g style="mix-blend-mode:multiply" opacity="0.3">
<path d="M1079.33 687.904H907.003V673.874H1079.33V687.904Z" fill="#6AA2E5"/>
</g>
<g style="mix-blend-mode:multiply" opacity="0.3">
<path d="M348.274 295.112H320.923V271.787H348.274V295.112Z" fill="#6AA2E5"/>
</g>
<g style="mix-blend-mode:multiply" opacity="0.3">
<path d="M399.245 295.112H371.835V271.787H399.245V295.112Z" fill="#6AA2E5"/>
</g>
<g style="mix-blend-mode:multiply" opacity="0.3">
<path d="M450.216 295.112H422.806V271.787H450.216V295.112Z" fill="#6AA2E5"/>
</g>
<g style="mix-blend-mode:multiply" opacity="0.3">
<path d="M348.274 338.21H320.923V314.944H348.274V338.21Z" fill="#6AA2E5"/>
</g>
<g style="mix-blend-mode:multiply" opacity="0.3">
<path d="M399.245 338.21H371.835V314.944H399.245V338.21Z" fill="#6AA2E5"/>
</g>
<g style="mix-blend-mode:multiply" opacity="0.3">
<path d="M450.216 338.21H422.806V314.944H450.216V338.21Z" fill="#6AA2E5"/>
</g>
<g style="mix-blend-mode:multiply" opacity="0.3">
<path d="M348.274 381.307H320.923V358.042H348.274V381.307Z" fill="#6AA2E5"/>
</g>
<g style="mix-blend-mode:multiply" opacity="0.3">
<path d="M399.245 381.307H371.835V358.042H399.245V381.307Z" fill="#6AA2E5"/>
</g>
<g style="mix-blend-mode:multiply" opacity="0.3">
<path d="M450.216 381.307H422.806V358.042H450.216V381.307Z" fill="#6AA2E5"/>
</g>
<g style="mix-blend-mode:multiply" opacity="0.3">
<path d="M348.274 424.405H320.923V401.139H348.274V424.405Z" fill="#6AA2E5"/>
</g>
<g style="mix-blend-mode:multiply" opacity="0.3">
<path d="M399.245 424.405H371.835V401.139H399.245V424.405Z" fill="#6AA2E5"/>
</g>
<g style="mix-blend-mode:multiply" opacity="0.3">
<path d="M450.216 424.405H422.806V401.139H450.216V424.405Z" fill="#6AA2E5"/>
</g>
<g style="mix-blend-mode:multiply" opacity="0.3">
<path d="M348.274 467.502H320.923V444.237H348.274V467.502Z" fill="#6AA2E5"/>
</g>
<g style="mix-blend-mode:multiply" opacity="0.3">
<path d="M399.245 467.502H371.835V444.237H399.245V467.502Z" fill="#6AA2E5"/>
</g>
<g style="mix-blend-mode:multiply" opacity="0.3">
<path d="M450.216 467.502H422.806V444.237H450.216V467.502Z" fill="#6AA2E5"/>
</g>
<g style="mix-blend-mode:multiply" opacity="0.3">
<path d="M348.274 510.659H320.923V487.334H348.274V510.659Z" fill="#6AA2E5"/>
</g>
<g style="mix-blend-mode:multiply" opacity="0.3">
<path d="M399.245 510.659H371.835V487.334H399.245V510.659Z" fill="#6AA2E5"/>
</g>
<g style="mix-blend-mode:multiply" opacity="0.3">
<path d="M450.216 510.659H422.806V487.334H450.216V510.659Z" fill="#6AA2E5"/>
</g>
<g style="mix-blend-mode:multiply" opacity="0.3">
<path d="M348.274 553.757H320.923V530.491H348.274V553.757Z" fill="#6AA2E5"/>
</g>
<g style="mix-blend-mode:multiply" opacity="0.3">
<path d="M399.245 553.757H371.835V530.491H399.245V553.757Z" fill="#6AA2E5"/>
</g>
<g style="mix-blend-mode:multiply" opacity="0.3">
<path d="M450.216 553.757H422.806V530.491H450.216V553.757Z" fill="#6AA2E5"/>
</g>
<g style="mix-blend-mode:multiply" opacity="0.3">
<path d="M348.274 596.854H320.923V573.589H348.274V596.854Z" fill="#6AA2E5"/>
</g>
<g style="mix-blend-mode:multiply" opacity="0.3">
<path d="M399.245 596.854H371.835V573.589H399.245V596.854Z" fill="#6AA2E5"/>
</g>
<g style="mix-blend-mode:multiply" opacity="0.3">
<path d="M450.216 596.854H422.806V573.589H450.216V596.854Z" fill="#6AA2E5"/>
</g>
<g style="mix-blend-mode:multiply" opacity="0.3">
<path d="M348.274 639.952H320.923V616.686H348.274V639.952Z" fill="#6AA2E5"/>
</g>
<g style="mix-blend-mode:multiply" opacity="0.3">
<path d="M399.245 639.952H371.835V616.686H399.245V639.952Z" fill="#6AA2E5"/>
</g>
<g style="mix-blend-mode:multiply" opacity="0.3">
<path d="M450.216 639.952H422.806V616.686H450.216V639.952Z" fill="#6AA2E5"/>
</g>
<g style="mix-blend-mode:multiply" opacity="0.3">
<path d="M348.274 683.05H320.923V659.784H348.274V683.05Z" fill="#6AA2E5"/>
</g>
<g style="mix-blend-mode:multiply" opacity="0.3">
<path d="M399.245 683.05H371.835V659.784H399.245V683.05Z" fill="#6AA2E5"/>
</g>
<g style="mix-blend-mode:multiply" opacity="0.3">
<path d="M450.216 683.05H422.806V659.784H450.216V683.05Z" fill="#6AA2E5"/>
</g>
<g style="mix-blend-mode:multiply" opacity="0.3">
<path d="M565.005 168.424H538.838V29.1263H565.005V168.424Z" fill="#6AA2E5"/>
</g>
<g style="mix-blend-mode:multiply" opacity="0.3">
<path d="M615.739 168.424H589.573V29.1263H615.739V168.424Z" fill="#6AA2E5"/>
</g>
<g style="mix-blend-mode:multiply" opacity="0.3">
<path d="M666.415 168.424H640.248V29.1263H666.415V168.424Z" fill="#6AA2E5"/>
</g>
<g style="mix-blend-mode:multiply" opacity="0.3">
<path d="M713.715 168.424H687.549V29.1263H713.715V168.424Z" fill="#6AA2E5"/>
</g>
<g style="mix-blend-mode:multiply" opacity="0.3">
<path d="M565.005 353.069H538.838V213.83H565.005V353.069Z" fill="#6AA2E5"/>
</g>
<g style="mix-blend-mode:multiply" opacity="0.3">
<path d="M615.739 353.069H589.573V213.83H615.739V353.069Z" fill="#6AA2E5"/>
</g>
<g style="mix-blend-mode:multiply" opacity="0.3">
<path d="M666.415 353.069H640.248V213.83H666.415V353.069Z" fill="#6AA2E5"/>
</g>
<g style="mix-blend-mode:multiply" opacity="0.3">
<path d="M713.715 353.069H687.549V213.83H713.715V353.069Z" fill="#6AA2E5"/>
</g>
<g style="mix-blend-mode:multiply" opacity="0.3">
<path d="M565.005 537.773H538.838V398.475H565.005V537.773Z" fill="#6AA2E5"/>
</g>
<g style="mix-blend-mode:multiply" opacity="0.3">
<path d="M615.739 537.773H589.573V398.475H615.739V537.773Z" fill="#6AA2E5"/>
</g>
<g style="mix-blend-mode:multiply" opacity="0.3">
<path d="M666.415 537.773H640.248V398.475H666.415V537.773Z" fill="#6AA2E5"/>
</g>
<g style="mix-blend-mode:multiply" opacity="0.3">
<path d="M713.715 537.773H687.549V398.475H713.715V537.773Z" fill="#6AA2E5"/>
</g>
<g style="mix-blend-mode:multiply" opacity="0.3">
<path d="M565.005 691.101H538.838V583.179H565.005V691.101Z" fill="#6AA2E5"/>
</g>
<g style="mix-blend-mode:multiply" opacity="0.3">
<path d="M615.739 691.101H589.573V583.179H615.739V691.101Z" fill="#6AA2E5"/>
</g>
<g style="mix-blend-mode:multiply" opacity="0.3">
<path d="M666.415 691.101H640.248V583.179H666.415V691.101Z" fill="#6AA2E5"/>
</g>
<g style="mix-blend-mode:multiply" opacity="0.3">
<path d="M713.715 691.101H687.549V583.179H713.715V691.101Z" fill="#6AA2E5"/>
</g>
<path d="M829.866 250.594V691.101H655.285V250.594H679.32V214.126H699.211V162.8L742.546 98.7456L785.88 162.8V214.126H805.83V250.594H829.866Z" fill="#CAE3FF"/>
<g opacity="0.5">
<path d="M685.418 300.914H670.618V277.648H685.418V300.914Z" fill="#6AA2E5"/>
</g>
<g opacity="0.5">
<path d="M717.563 300.914H702.763V277.648H717.563V300.914Z" fill="#6AA2E5"/>
</g>
<g opacity="0.5">
<path d="M749.709 300.914H734.909V277.648H749.709V300.914Z" fill="#6AA2E5"/>
</g>
<g opacity="0.5">
<path d="M781.854 300.914H767.054V277.648H781.854V300.914Z" fill="#6AA2E5"/>
</g>
<g opacity="0.5">
<path d="M814 300.914H799.2V277.648H814V300.914Z" fill="#6AA2E5"/>
</g>
<g opacity="0.5">
<path d="M685.418 341.939H670.618V318.674H685.418V341.939Z" fill="#6AA2E5"/>
</g>
<g opacity="0.5">
<path d="M717.563 341.939H702.763V318.674H717.563V341.939Z" fill="#6AA2E5"/>
</g>
<g opacity="0.5">
<path d="M749.709 341.939H734.909V318.674H749.709V341.939Z" fill="#6AA2E5"/>
</g>
<g opacity="0.5">
<path d="M781.854 341.939H767.054V318.674H781.854V341.939Z" fill="#6AA2E5"/>
</g>
<g opacity="0.5">
<path d="M814 341.939H799.2V318.674H814V341.939Z" fill="#6AA2E5"/>
</g>
<g opacity="0.5">
<path d="M685.418 382.965H670.618V359.699H685.418V382.965Z" fill="#6AA2E5"/>
</g>
<g opacity="0.5">
<path d="M717.563 382.965H702.763V359.699H717.563V382.965Z" fill="#6AA2E5"/>
</g>
<g opacity="0.5">
<path d="M749.709 382.965H734.909V359.699H749.709V382.965Z" fill="#6AA2E5"/>
</g>
<g opacity="0.5">
<path d="M781.854 382.965H767.054V359.699H781.854V382.965Z" fill="#6AA2E5"/>
</g>
<g opacity="0.5">
<path d="M814 382.965H799.2V359.699H814V382.965Z" fill="#6AA2E5"/>
</g>
<g opacity="0.5">
<path d="M685.418 423.99H670.618V400.725H685.418V423.99Z" fill="#6AA2E5"/>
</g>
<g opacity="0.5">
<path d="M717.563 423.99H702.763V400.725H717.563V423.99Z" fill="#6AA2E5"/>
</g>
<g opacity="0.5">
<path d="M749.709 423.99H734.909V400.725H749.709V423.99Z" fill="#6AA2E5"/>
</g>
<g opacity="0.5">
<path d="M781.854 423.99H767.054V400.725H781.854V423.99Z" fill="#6AA2E5"/>
</g>
<g opacity="0.5">
<path d="M814 423.99H799.2V400.725H814V423.99Z" fill="#6AA2E5"/>
</g>
<g opacity="0.5">
<path d="M685.418 465.075H670.618V441.75H685.418V465.075Z" fill="#6AA2E5"/>
</g>
<g opacity="0.5">
<path d="M717.563 465.075H702.763V441.75H717.563V465.075Z" fill="#6AA2E5"/>
</g>
<g opacity="0.5">
<path d="M749.709 465.075H734.909V441.75H749.709V465.075Z" fill="#6AA2E5"/>
</g>
<g opacity="0.5">
<path d="M781.854 465.075H767.054V441.75H781.854V465.075Z" fill="#6AA2E5"/>
</g>
<g opacity="0.5">
<path d="M814 465.075H799.2V441.75H814V465.075Z" fill="#6AA2E5"/>
</g>
<g opacity="0.5">
<path d="M685.418 508.706H670.618V485.44H685.418V508.706Z" fill="#6AA2E5"/>
</g>
<g opacity="0.5">
<path d="M717.563 508.706H702.763V485.44H717.563V508.706Z" fill="#6AA2E5"/>
</g>
<g opacity="0.5">
<path d="M749.709 508.706H734.909V485.44H749.709V508.706Z" fill="#6AA2E5"/>
</g>
<g opacity="0.5">
<path d="M781.854 508.706H767.054V485.44H781.854V508.706Z" fill="#6AA2E5"/>
</g>
<g opacity="0.5">
<path d="M814 508.706H799.2V485.44H814V508.706Z" fill="#6AA2E5"/>
</g>
<g opacity="0.5">
<path d="M685.418 552.395H670.618V529.13H685.418V552.395Z" fill="#6AA2E5"/>
</g>
<g opacity="0.5">
<path d="M717.563 552.395H702.763V529.13H717.563V552.395Z" fill="#6AA2E5"/>
</g>
<g opacity="0.5">
<path d="M749.709 552.395H734.909V529.13H749.709V552.395Z" fill="#6AA2E5"/>
</g>
<g opacity="0.5">
<path d="M781.854 552.395H767.054V529.13H781.854V552.395Z" fill="#6AA2E5"/>
</g>
<g opacity="0.5">
<path d="M814 552.395H799.2V529.13H814V552.395Z" fill="#6AA2E5"/>
</g>
<g opacity="0.5">
<path d="M685.418 596.085H670.618V572.819H685.418V596.085Z" fill="#6AA2E5"/>
</g>
<g opacity="0.5">
<path d="M717.563 596.085H702.763V572.819H717.563V596.085Z" fill="#6AA2E5"/>
</g>
<g opacity="0.5">
<path d="M749.709 596.085H734.909V572.819H749.709V596.085Z" fill="#6AA2E5"/>
</g>
<g opacity="0.5">
<path d="M781.854 596.085H767.054V572.819H781.854V596.085Z" fill="#6AA2E5"/>
</g>
<g opacity="0.5">
<path d="M814 596.085H799.2V572.819H814V596.085Z" fill="#6AA2E5"/>
</g>
<g opacity="0.5">
<path d="M685.418 639.774H670.618V616.509H685.418V639.774Z" fill="#6AA2E5"/>
</g>
<g opacity="0.5">
<path d="M717.563 639.774H702.763V616.509H717.563V639.774Z" fill="#6AA2E5"/>
</g>
<g opacity="0.5">
<path d="M749.709 639.774H734.909V616.509H749.709V639.774Z" fill="#6AA2E5"/>
</g>
<g opacity="0.5">
<path d="M781.854 639.774H767.054V616.509H781.854V639.774Z" fill="#6AA2E5"/>
</g>
<g opacity="0.5">
<path d="M814 639.774H799.2V616.509H814V639.774Z" fill="#6AA2E5"/>
</g>
<g opacity="0.5">
<path d="M685.418 683.464H670.618V660.198H685.418V683.464Z" fill="#6AA2E5"/>
</g>
<g opacity="0.5">
<path d="M717.563 683.464H702.763V660.198H717.563V683.464Z" fill="#6AA2E5"/>
</g>
<g opacity="0.5">
<path d="M749.709 683.464H734.909V660.198H749.709V683.464Z" fill="#6AA2E5"/>
</g>
<g opacity="0.5">
<path d="M781.854 683.464H767.054V660.198H781.854V683.464Z" fill="#6AA2E5"/>
</g>
<g opacity="0.5">
<path d="M814 683.464H799.2V660.198H814V683.464Z" fill="#6AA2E5"/>
</g>
<g opacity="0.5">
<path d="M707.914 245.147H693.114V221.882H707.914V245.147Z" fill="#6AA2E5"/>
</g>
<g opacity="0.5">
<path d="M734.85 245.147H720.109V221.882H734.85V245.147Z" fill="#6AA2E5"/>
</g>
<g opacity="0.5">
<path d="M761.786 245.147H747.045V221.882H761.786V245.147Z" fill="#6AA2E5"/>
</g>
<g opacity="0.5">
<path d="M734.494 202.05H719.694V178.784H734.494V202.05Z" fill="#6AA2E5"/>
</g>
<g opacity="0.5">
<path d="M761.786 202.05H747.045V178.784H761.786V202.05Z" fill="#6AA2E5"/>
</g>
<g opacity="0.5">
<path d="M749.709 162.8H734.909V139.534H749.709V162.8Z" fill="#6AA2E5"/>
</g>
<g opacity="0.5">
<path d="M788.781 245.147H773.981V221.882H788.781V245.147Z" fill="#6AA2E5"/>
</g>
</g>
</svg>
